<?xml version="1.0" encoding="utf-8"?><svg width="2048" height=" 2048" viewBox="0 0 2048 2048" version="1.1" xmlns="http://www.w3.org/2000/svg"><g><line x1="993.5385963248756" y1="710.1179638871758" x2="756.3662829871839" y2="811.0980973936871" stroke="#ccc" stroke-width="1" /><line x1="993.5385963248756" y1="710.1179638871758" x2="621.7225197371424" y2="807.4863564238041" stroke="#ccc" stroke-width="1" /><line x1="993.5385963248756" y1="710.1179638871758" x2="1085.1715499569011" y2="914.8390945719709" stroke="#ccc" stroke-width="1" /><line x1="1085.1715499569011" y1="914.8390945719709" x2="993.5385963248756" y2="710.1179638871758" stroke="#ccc" stroke-width="1" /><line x1="1235.0705032022543" y1="715.7667214881324" x2="993.5385963248756" y2="710.1179638871758" stroke="#ccc" stroke-width="1" /><line x1="1235.0705032022543" y1="715.7667214881324" x2="1085.1715499569011" y2="914.8390945719709" stroke="#ccc" stroke-width="1" /><line x1="1050.435345498866" y1="1250.3806103797303" x2="756.3662829871839" y2="811.0980973936871" stroke="#ccc" stroke-width="1" /><line x1="756.3662829871839" y1="811.0980973936871" x2="621.7225197371424" y2="807.4863564238041" stroke="#ccc" stroke-width="1" /><line x1="479.782334670439" y1="611.917771373519" x2="756.3662829871839" y2="811.0980973936871" stroke="#ccc" stroke-width="1" /><line x1="1085.1715499569011" y1="914.8390945719709" x2="683.6427556226249" y2="1202.1503368435826" stroke="#ccc" stroke-width="1" /><line x1="868.4080731753812" y1="1241.2278848836136" x2="1096.1456380176812" y2="1431.1229034219941" stroke="#ccc" stroke-width="1" /><line x1="1988.472283203204" y1="745.0569683021303" x2="1691.470409323763" y2="898.4905618419695" stroke="#ccc" stroke-width="1" /><line x1="1984.6804168296173" y1="929.7907021567534" x2="1691.470409323763" y2="898.4905618419695" stroke="#ccc" stroke-width="1" /><line x1="621.7225197371424" y1="807.4863564238041" x2="683.6427556226249" y2="1202.1503368435826" stroke="#ccc" stroke-width="1" /><line x1="1870.029626119555" y1="658.359141369622" x2="1691.470409323763" y2="898.4905618419695" stroke="#ccc" stroke-width="1" /><line x1="500.0356628814749" y1="1057.1683903591536" x2="868.4080731753812" y2="1241.2278848836136" stroke="#ccc" stroke-width="1" /><line x1="761.1237304008482" y1="1581.8872428017298" x2="683.6427556226249" y2="1202.1503368435826" stroke="#ccc" stroke-width="1" /><line x1="761.1237304008482" y1="1581.8872428017298" x2="868.4080731753812" y2="1241.2278848836136" stroke="#ccc" stroke-width="1" /><line x1="410.8215241084107" y1="1343.2789743501698" x2="683.6427556226249" y2="1202.1503368435826" stroke="#ccc" stroke-width="1" /><line x1="683.6427556226249" y1="1202.1503368435826" x2="1691.470409323763" y2="898.4905618419695" stroke="#ccc" stroke-width="1" /><line x1="683.6427556226249" y1="1202.1503368435826" x2="355.0827479397774" y2="1521.8602781512618" stroke="#ccc" stroke-width="1" /><line x1="683.6427556226249" y1="1202.1503368435826" x2="410.8215241084107" y2="1343.2789743501698" stroke="#ccc" stroke-width="1" /></g><g><circle cx="993.5385963248756" cy="710.1179638871758" r="50.292950423107534" fill="#999" /><circle cx="1235.0705032022543" cy="715.7667214881324" r="50.292950423107534" fill="#999" /><circle cx="479.782334670439" cy="611.917771373519" r="50.292950423107534" fill="#999" /><circle cx="1050.435345498866" cy="1250.3806103797303" r="50.292950423107534" fill="#999" /><circle cx="756.3662829871839" cy="811.0980973936871" r="50.292950423107534" fill="#999" /><circle cx="1085.1715499569011" cy="914.8390945719709" r="50.292950423107534" fill="#999" /><circle cx="868.4080731753812" cy="1241.2278848836136" r="50.292950423107534" fill="#999" /><circle cx="1096.1456380176812" cy="1431.1229034219941" r="50.292950423107534" fill="#999" /><circle cx="1988.472283203204" cy="745.0569683021303" r="50.292950423107534" fill="#999" /><circle cx="1984.6804168296173" cy="929.7907021567534" r="50.292950423107534" fill="#999" /><circle cx="621.7225197371424" cy="807.4863564238041" r="50.292950423107534" fill="#999" /><circle cx="1870.029626119555" cy="658.359141369622" r="50.292950423107534" fill="#999" /><circle cx="500.0356628814749" cy="1057.1683903591536" r="50.292950423107534" fill="#999" /><circle cx="761.1237304008482" cy="1581.8872428017298" r="50.292950423107534" fill="#999" /><circle cx="1691.470409323763" cy="898.4905618419695" r="50.292950423107534" fill="#999" /><circle cx="410.8215241084107" cy="1343.2789743501698" r="50.292950423107534" fill="#999" /><circle cx="683.6427556226249" cy="1202.1503368435826" r="50.292950423107534" fill="#999" /><circle cx="355.0827479397774" cy="1521.8602781512618" r="50.292950423107534" fill="#999" /></g><g><text x="1048.8608417902938" y="722.6912014929527" font-family="sans-serif" font-size="50.292950423107534">auction</text><text x="1290.3927486676725" y="728.3399590939092" font-family="sans-serif" font-size="50.292950423107534">auction_bids</text><text x="535.1045801358573" y="624.4910089792959" font-family="sans-serif" font-size="50.292950423107534">auction_item_details</text><text x="1105.7575909642842" y="1262.9538479855073" font-family="sans-serif" font-size="50.292950423107534">auction_item_photos</text><text x="811.6885284526022" y="823.671334999464" font-family="sans-serif" font-size="50.292950423107534">auction_items</text><text x="1140.4937954223194" y="927.4123321777478" font-family="sans-serif" font-size="50.292950423107534">bidders</text><text x="923.7303186407995" y="1253.8011224893905" font-family="sans-serif" font-size="50.292950423107534">companies</text><text x="1151.4678834830995" y="1443.696141027771" font-family="sans-serif" font-size="50.292950423107534">company_photos</text><text x="2043.7945286686222" y="757.6302059079071" font-family="sans-serif" font-size="50.292950423107534">email_changes</text><text x="2040.0026622950356" y="942.3639397625302" font-family="sans-serif" font-size="50.292950423107534">email_verifications</text><text x="677.0447652025607" y="820.0595940295809" font-family="sans-serif" font-size="50.292950423107534">owners</text><text x="1925.3518715849732" y="670.9323789753988" font-family="sans-serif" font-size="50.292950423107534">password_reset</text><text x="555.3579083468932" y="1069.7416279649306" font-family="sans-serif" font-size="50.292950423107534">representative_invitations</text><text x="816.4459758662665" y="1594.4604804075068" font-family="sans-serif" font-size="50.292950423107534">representatives</text><text x="1746.7926547891814" y="911.0637994477463" font-family="sans-serif" font-size="50.292950423107534">user_credentials</text><text x="466.143769573829" y="1355.8522119559468" font-family="sans-serif" font-size="50.292950423107534">user_photos</text><text x="738.9650010880432" y="1214.7235744493596" font-family="sans-serif" font-size="50.292950423107534">user_profiles</text><text x="410.4049934051957" y="1534.4335157570388" font-family="sans-serif" font-size="50.292950423107534">user_settings</text></g></svg>